<svg width="350" height="244" viewBox="0 0 350 244" fill="none" xmlns="http://www.w3.org/2000/svg">
<rect y="244" width="244" height="350" rx="26" transform="rotate(-90 0 244)" fill="white"/>
<rect x="7.56757" y="236.434" width="228.868" height="334.865" rx="24" transform="rotate(-90 7.56757 236.434)" fill="black"/>
<path d="M23 172.124L23 38.6977C23 29.8611 30.1634 22.6977 39 22.6977L311.595 22.6977C320.431 22.6977 327.595 29.8611 327.595 38.6977V172.124L23 172.124Z" fill="white"/>
<path d="M125.766 212.711L132.234 185.875H139.641L129.75 220H124.758L125.766 212.711ZM120.234 185.875L126.68 212.711L127.734 220H122.719L112.898 185.875H120.234ZM150.023 185.875V220H143.203V185.875H150.023ZM175.453 214.328V220H160.617V214.328H175.453ZM162.75 185.875V220H155.883V185.875H162.75ZM173.461 199.703V205.211H160.617V199.703H173.461ZM175.406 185.875V191.57H160.617V185.875H175.406ZM186.422 214.891L191.883 185.875H195.492L196.57 190.375L190.711 220H186.797L186.422 214.891ZM184.547 185.875L188.953 214.961L188.203 220H183.891L177.773 185.875H184.547ZM200.531 214.844L204.914 185.875H211.664L205.594 220H201.258L200.531 214.844ZM197.578 185.875L203.086 215.055L202.641 220H198.727L192.891 190.328L193.992 185.875H197.578ZM229.898 211.023C229.898 210.414 229.844 209.859 229.734 209.359C229.625 208.859 229.391 208.398 229.031 207.977C228.688 207.555 228.18 207.133 227.508 206.711C226.852 206.289 225.992 205.852 224.93 205.398C223.664 204.867 222.438 204.305 221.25 203.711C220.062 203.102 218.992 202.398 218.039 201.602C217.086 200.805 216.328 199.867 215.766 198.789C215.219 197.695 214.945 196.414 214.945 194.945C214.945 193.508 215.203 192.203 215.719 191.031C216.25 189.859 217 188.859 217.969 188.031C218.938 187.188 220.07 186.539 221.367 186.086C222.68 185.633 224.141 185.406 225.75 185.406C227.938 185.406 229.828 185.859 231.422 186.766C233.031 187.672 234.273 188.914 235.148 190.492C236.039 192.07 236.484 193.883 236.484 195.93H229.641C229.641 194.961 229.5 194.109 229.219 193.375C228.953 192.625 228.523 192.039 227.93 191.617C227.336 191.195 226.57 190.984 225.633 190.984C224.758 190.984 224.031 191.164 223.453 191.523C222.891 191.867 222.469 192.344 222.188 192.953C221.922 193.547 221.789 194.219 221.789 194.969C221.789 195.531 221.922 196.039 222.188 196.492C222.469 196.93 222.852 197.328 223.336 197.688C223.82 198.031 224.391 198.367 225.047 198.695C225.719 199.023 226.453 199.344 227.25 199.656C228.797 200.266 230.164 200.938 231.352 201.672C232.539 202.391 233.531 203.203 234.328 204.109C235.125 205 235.727 206.008 236.133 207.133C236.539 208.258 236.742 209.539 236.742 210.977C236.742 212.398 236.492 213.695 235.992 214.867C235.508 216.023 234.797 217.023 233.859 217.867C232.922 218.695 231.789 219.336 230.461 219.789C229.148 220.242 227.68 220.469 226.055 220.469C224.477 220.469 222.984 220.25 221.578 219.812C220.172 219.359 218.93 218.68 217.852 217.773C216.789 216.852 215.953 215.688 215.344 214.281C214.734 212.859 214.43 211.18 214.43 209.242H221.297C221.297 210.273 221.398 211.156 221.602 211.891C221.805 212.609 222.117 213.188 222.539 213.625C222.961 214.047 223.477 214.367 224.086 214.586C224.711 214.789 225.422 214.891 226.219 214.891C227.125 214.891 227.844 214.719 228.375 214.375C228.922 214.031 229.312 213.57 229.547 212.992C229.781 212.414 229.898 211.758 229.898 211.023Z" fill="white"/>
</svg>
